<?xml version="1.0" encoding="UTF-8"?><svg id="Layer_1" xmlns="http://www.w3.org/2000/svg" viewBox="0 0 195.76 82.07"><defs><style>.cls-1{fill:#efd282;}.cls-2{fill:#fff;}.cls-3{fill:#e1e0dd;}.cls-4{fill:none;stroke:#e1e0dd;stroke-miterlimit:10;}</style></defs><path class="cls-2" d="M187.91,3.4H5.82C3.12,3.4,.93,5.95,.93,9.08V74.15c0,3.14,2.19,5.68,4.9,5.68H187.91c2.7,0,4.9-2.54,4.9-5.68V9.08c0-3.14-2.19-5.68-4.9-5.68Z"/><g><rect class="cls-4" x="1.35" y="2.83" width="191.45" height="77.13" rx="5.96" ry="5.96"/><g><path class="cls-3" d="M8.73,8.82h7.19c.33,0,.59,.27,.59,.59v7.19c0,.33-.27,.59-.59,.59h-7.19c-.33,0-.59-.27-.59-.59v-7.19c0-.33,.27-.59,.59-.59Z"/><path class="cls-3" d="M8.73,21.46h7.19c.33,0,.59,.27,.59,.59v7.19c0,.33-.27,.59-.59,.59h-7.19c-.33,0-.59-.27-.59-.59v-7.19c0-.33,.27-.59,.59-.59Z"/><path class="cls-3" d="M18.51,21.46h7.19c.33,0,.59,.27,.59,.59v7.19c0,.33-.27,.59-.59,.59h-7.19c-.33,0-.59-.27-.59-.59v-7.19c0-.33,.27-.59,.59-.59Z"/><path class="cls-3" d="M28.28,21.46h7.19c.33,0,.59,.27,.59,.59v7.19c0,.33-.27,.59-.59,.59h-7.19c-.33,0-.59-.27-.59-.59v-7.19c0-.33,.27-.59,.59-.59Z"/><path class="cls-3" d="M38.06,21.46h7.19c.33,0,.59,.27,.59,.59v7.19c0,.33-.27,.59-.59,.59h-7.19c-.33,0-.59-.27-.59-.59v-7.19c0-.33,.27-.59,.59-.59Z"/><path class="cls-3" d="M47.84,21.46h7.19c.33,0,.59,.27,.59,.59v7.19c0,.33-.27,.59-.59,.59h-7.19c-.33,0-.59-.27-.59-.59v-7.19c0-.33,.27-.59,.59-.59Z"/><path class="cls-3" d="M57.61,21.46h7.19c.33,0,.59,.27,.59,.59v7.19c0,.33-.27,.59-.59,.59h-7.19c-.33,0-.59-.27-.59-.59v-7.19c0-.33,.27-.59,.59-.59Z"/><rect class="cls-3" x="66.8" y="21.46" width="8.37" height="8.37" rx=".59" ry=".59"/><path class="cls-3" d="M77.17,21.46h7.19c.33,0,.59,.27,.59,.59v7.19c0,.33-.27,.59-.59,.59h-7.19c-.33,0-.59-.27-.59-.59v-7.19c0-.33,.27-.59,.59-.59Z"/><path class="cls-3" d="M86.94,21.46h7.19c.33,0,.59,.27,.59,.59v7.19c0,.33-.27,.59-.59,.59h-7.19c-.33,0-.59-.27-.59-.59v-7.19c0-.33,.27-.59,.59-.59Z"/><path class="cls-3" d="M96.72,21.46h7.19c.33,0,.59,.27,.59,.59v7.19c0,.33-.27,.59-.59,.59h-7.19c-.33,0-.59-.27-.59-.59v-7.19c0-.33,.27-.59,.59-.59Z"/><rect class="cls-3" x="105.9" y="21.46" width="8.37" height="8.37" rx=".59" ry=".59"/><path class="cls-3" d="M116.27,21.46h7.19c.33,0,.59,.27,.59,.59v7.19c0,.33-.27,.59-.59,.59h-7.19c-.33,0-.59-.27-.59-.59v-7.19c0-.33,.27-.59,.59-.59Z"/><path class="cls-3" d="M126.05,21.46h7.19c.33,0,.59,.27,.59,.59v7.19c0,.33-.27,.59-.59,.59h-7.19c-.33,0-.59-.27-.59-.59v-7.19c0-.33,.27-.59,.59-.59Z"/><path class="cls-3" d="M135.83,21.46h15.76c.33,0,.59,.27,.59,.59v7.19c0,.33-.27,.59-.59,.59h-15.76c-.33,0-.59-.27-.59-.59v-7.19c0-.33,.27-.59,.59-.59Z"/><path class="cls-3" d="M8.73,31.59h11.09c.33,0,.59,.27,.59,.59v7.19c0,.33-.27,.59-.59,.59H8.73c-.33,0-.59-.27-.59-.59v-7.19c0-.33,.27-.59,.59-.59Z"/><path class="cls-3" d="M8.73,41.66h13.61c.33,0,.59,.27,.59,.59v7.19c0,.33-.27,.59-.59,.59H8.73c-.33,0-.59-.27-.59-.59v-7.19c0-.33,.27-.59,.59-.59Z"/><path class="cls-3" d="M8.73,51.73H27.33c.33,0,.59,.27,.59,.59v7.19c0,.33-.27,.59-.59,.59H8.73c-.33,0-.59-.27-.59-.59v-7.19c0-.33,.27-.59,.59-.59Z"/><path class="cls-3" d="M8.73,61.66h11.46c.33,0,.59,.27,.59,.59v7.19c0,.33-.27,.59-.59,.59H8.73c-.33,0-.59-.27-.59-.59v-7.19c0-.33,.27-.59,.59-.59Z"/><path class="cls-3" d="M22.69,31.59h7.19c.33,0,.59,.27,.59,.59v7.19c0,.33-.27,.59-.59,.59h-7.19c-.33,0-.59-.27-.59-.59v-7.19c0-.33,.27-.59,.59-.59Z"/><rect class="cls-3" x="24.51" y="41.66" width="8.37" height="8.37" rx=".59" ry=".59"/><path class="cls-3" d="M35.21,41.66h7.19c.33,0,.59,.27,.59,.59v7.19c0,.33-.27,.59-.59,.59h-7.19c-.33,0-.59-.27-.59-.59v-7.19c0-.33,.27-.59,.59-.59Z"/><path class="cls-3" d="M30.27,51.73h7.19c.33,0,.59,.27,.59,.59v7.19c0,.33-.27,.59-.59,.59h-7.19c-.33,0-.59-.27-.59-.59v-7.19c0-.33,.27-.59,.59-.59Z"/><path class="cls-3" d="M22.97,61.66h7.19c.33,0,.59,.27,.59,.59v7.19c0,.33-.27,.59-.59,.59h-7.19c-.33,0-.59-.27-.59-.59v-7.19c0-.33,.27-.59,.59-.59Z"/><rect class="cls-3" x="32.48" y="61.66" width="8.37" height="8.37" rx=".59" ry=".59"/><path class="cls-3" d="M43.08,61.66h7.19c.33,0,.59,.27,.59,.59v7.19c0,.33-.27,.59-.59,.59h-7.19c-.33,0-.59-.27-.59-.59v-7.19c0-.33,.27-.59,.59-.59Z"/><rect class="cls-1" x="52.42" y="61.66" width="58.63" height="8.37" rx=".59" ry=".59"/><rect class="cls-3" x="39.85" y="51.73" width="8.37" height="8.37" rx=".59" ry=".59"/><path class="cls-3" d="M50.61,51.73h7.19c.33,0,.59,.27,.59,.59v7.19c0,.33-.27,.59-.59,.59h-7.19c-.33,0-.59-.27-.59-.59v-7.19c0-.33,.27-.59,.59-.59Z"/><path class="cls-3" d="M60.78,51.73h7.19c.33,0,.59,.27,.59,.59v7.19c0,.33-.27,.59-.59,.59h-7.19c-.33,0-.59-.27-.59-.59v-7.19c0-.33,.27-.59,.59-.59Z"/><path class="cls-3" d="M70.95,51.73h7.19c.33,0,.59,.27,.59,.59v7.19c0,.33-.27,.59-.59,.59h-7.19c-.33,0-.59-.27-.59-.59v-7.19c0-.33,.27-.59,.59-.59Z"/><path class="cls-3" d="M81.13,51.73h7.19c.33,0,.59,.27,.59,.59v7.19c0,.33-.27,.59-.59,.59h-7.19c-.33,0-.59-.27-.59-.59v-7.19c0-.33,.27-.59,.59-.59Z"/><path class="cls-3" d="M91.3,51.73h7.19c.33,0,.59,.27,.59,.59v7.19c0,.33-.27,.59-.59,.59h-7.19c-.33,0-.59-.27-.59-.59v-7.19c0-.33,.27-.59,.59-.59Z"/><rect class="cls-3" x="100.88" y="51.73" width="8.37" height="8.37" rx=".59" ry=".59"/><path class="cls-3" d="M111.64,51.73h7.19c.33,0,.59,.27,.59,.59v7.19c0,.33-.27,.59-.59,.59h-7.19c-.33,0-.59-.27-.59-.59v-7.19c0-.33,.27-.59,.59-.59Z"/><rect class="cls-3" x="113.25" y="61.66" width="8.37" height="8.37" rx=".59" ry=".59"/><rect class="cls-3" x="123.43" y="61.66" width="8.37" height="8.37" rx=".59" ry=".59"/><path class="cls-3" d="M134.21,61.66h7.19c.33,0,.59,.27,.59,.59v7.19c0,.33-.27,.59-.59,.59h-7.19c-.33,0-.59-.27-.59-.59v-7.19c0-.33,.27-.59,.59-.59Z"/><rect class="cls-3" x="143.8" y="61.66" width="8.37" height="8.37" rx=".59" ry=".59"/><rect class="cls-3" x="121.22" y="51.73" width="8.37" height="8.37" rx=".59" ry=".59"/><rect class="cls-3" x="131.39" y="51.73" width="20.79" height="8.37" rx=".59" ry=".59"/><path class="cls-3" d="M45.31,41.66h7.19c.33,0,.59,.27,.59,.59v7.19c0,.33-.27,.59-.59,.59h-7.19c-.33,0-.59-.27-.59-.59v-7.19c0-.33,.27-.59,.59-.59Z"/><path class="cls-3" d="M55.41,41.66h7.19c.33,0,.59,.27,.59,.59v7.19c0,.33-.27,.59-.59,.59h-7.19c-.33,0-.59-.27-.59-.59v-7.19c0-.33,.27-.59,.59-.59Z"/><path class="cls-3" d="M65.52,41.66h7.19c.33,0,.59,.27,.59,.59v7.19c0,.33-.27,.59-.59,.59h-7.19c-.33,0-.59-.27-.59-.59v-7.19c0-.33,.27-.59,.59-.59Z"/><path class="cls-3" d="M75.62,41.66h7.19c.33,0,.59,.27,.59,.59v7.19c0,.33-.27,.59-.59,.59h-7.19c-.33,0-.59-.27-.59-.59v-7.19c0-.33,.27-.59,.59-.59Z"/><path class="cls-3" d="M85.73,41.66h7.19c.33,0,.59,.27,.59,.59v7.19c0,.33-.27,.59-.59,.59h-7.19c-.33,0-.59-.27-.59-.59v-7.19c0-.33,.27-.59,.59-.59Z"/><path class="cls-3" d="M95.83,41.66h7.19c.33,0,.59,.27,.59,.59v7.19c0,.33-.27,.59-.59,.59h-7.19c-.33,0-.59-.27-.59-.59v-7.19c0-.33,.27-.59,.59-.59Z"/><rect class="cls-3" x="105.34" y="41.66" width="8.37" height="8.37" rx=".59" ry=".59"/><path class="cls-3" d="M116.04,41.66h7.19c.33,0,.59,.27,.59,.59v7.19c0,.33-.27,.59-.59,.59h-7.19c-.33,0-.59-.27-.59-.59v-7.19c0-.33,.27-.59,.59-.59Z"/><path class="cls-3" d="M126.14,41.66h7.19c.33,0,.59,.27,.59,.59v7.19c0,.33-.27,.59-.59,.59h-7.19c-.33,0-.59-.27-.59-.59v-7.19c0-.33,.27-.59,.59-.59Z"/><path class="cls-3" d="M32.7,31.59h7.19c.33,0,.59,.27,.59,.59v7.19c0,.33-.27,.59-.59,.59h-7.19c-.33,0-.59-.27-.59-.59v-7.19c0-.33,.27-.59,.59-.59Z"/><path class="cls-3" d="M42.71,31.59h7.19c.33,0,.59,.27,.59,.59v7.19c0,.33-.27,.59-.59,.59h-7.19c-.33,0-.59-.27-.59-.59v-7.19c0-.33,.27-.59,.59-.59Z"/><path class="cls-3" d="M52.72,31.59h7.19c.33,0,.59,.27,.59,.59v7.19c0,.33-.27,.59-.59,.59h-7.19c-.33,0-.59-.27-.59-.59v-7.19c0-.33,.27-.59,.59-.59Z"/><path class="cls-3" d="M62.73,31.59h7.19c.33,0,.59,.27,.59,.59v7.19c0,.33-.27,.59-.59,.59h-7.19c-.33,0-.59-.27-.59-.59v-7.19c0-.33,.27-.59,.59-.59Z"/><path class="cls-3" d="M72.73,31.59h7.19c.33,0,.59,.27,.59,.59v7.19c0,.33-.27,.59-.59,.59h-7.19c-.33,0-.59-.27-.59-.59v-7.19c0-.33,.27-.59,.59-.59Z"/><path class="cls-3" d="M82.74,31.59h7.19c.33,0,.59,.27,.59,.59v7.19c0,.33-.27,.59-.59,.59h-7.19c-.33,0-.59-.27-.59-.59v-7.19c0-.33,.27-.59,.59-.59Z"/><path class="cls-3" d="M92.75,31.59h7.19c.33,0,.59,.27,.59,.59v7.19c0,.33-.27,.59-.59,.59h-7.19c-.33,0-.59-.27-.59-.59v-7.19c0-.33,.27-.59,.59-.59Z"/><path class="cls-3" d="M102.76,31.59h7.19c.33,0,.59,.27,.59,.59v7.19c0,.33-.27,.59-.59,.59h-7.19c-.33,0-.59-.27-.59-.59v-7.19c0-.33,.27-.59,.59-.59Z"/><path class="cls-3" d="M112.77,31.59h7.19c.33,0,.59,.27,.59,.59v7.19c0,.33-.27,.59-.59,.59h-7.19c-.33,0-.59-.27-.59-.59v-7.19c0-.33,.27-.59,.59-.59Z"/><path class="cls-3" d="M122.78,31.59h7.19c.33,0,.59,.27,.59,.59v7.19c0,.33-.27,.59-.59,.59h-7.19c-.33,0-.59-.27-.59-.59v-7.19c0-.33,.27-.59,.59-.59Z"/><path class="cls-3" d="M132.78,31.59h7.19c.33,0,.59,.27,.59,.59v7.19c0,.33-.27,.59-.59,.59h-7.19c-.33,0-.59-.27-.59-.59v-7.19c0-.33,.27-.59,.59-.59Z"/><g><path class="cls-3" d="M142.79,31.59c-.33,0-.59,.27-.59,.59v7.19c0,.33,.27,.59,.59,.59h2.31c.33,0,.59,.27,.59,.59v8.89c0,.33,.27,.59,.59,.59h5.3c.33,0,.59-.27,.59-.59v-17.26c0-.33-.27-.59-.59-.59h-8.79Z"/><path class="cls-3" d="M142.79,41.66h-6.54c-.33,0-.59,.27-.59,.59v7.19c0,.33,.27,.59,.59,.59h7.19c.33,0,.59-.27,.59-.59v-7.19c0-.33-.27-.59-.59-.59h-.64Z"/></g><path class="cls-3" d="M24.33,8.82h7.19c.33,0,.59,.27,.59,.59v7.19c0,.33-.27,.59-.59,.59h-7.19c-.33,0-.59-.27-.59-.59v-7.19c0-.33,.27-.59,.59-.59Z"/><path class="cls-3" d="M35.21,8.82h7.19c.33,0,.59,.27,.59,.59v7.19c0,.33-.27,.59-.59,.59h-7.19c-.33,0-.59-.27-.59-.59v-7.19c0-.33,.27-.59,.59-.59Z"/><path class="cls-3" d="M46.08,8.82h7.19c.33,0,.59,.27,.59,.59v7.19c0,.33-.27,.59-.59,.59h-7.19c-.33,0-.59-.27-.59-.59v-7.19c0-.33,.27-.59,.59-.59Z"/><path class="cls-3" d="M56.96,8.82h7.19c.33,0,.59,.27,.59,.59v7.19c0,.33-.27,.59-.59,.59h-7.19c-.33,0-.59-.27-.59-.59v-7.19c0-.33,.27-.59,.59-.59Z"/><path class="cls-3" d="M68.05,8.82h7.19c.33,0,.59,.27,.59,.59v7.19c0,.33-.27,.59-.59,.59h-7.19c-.33,0-.59-.27-.59-.59v-7.19c0-.33,.27-.59,.59-.59Z"/><rect class="cls-3" x="78.33" y="8.82" width="8.37" height="8.37" rx=".59" ry=".59"/><path class="cls-3" d="M89.8,8.82h7.19c.33,0,.59,.27,.59,.59v7.19c0,.33-.27,.59-.59,.59h-7.19c-.33,0-.59-.27-.59-.59v-7.19c0-.33,.27-.59,.59-.59Z"/><rect class="cls-3" x="100.08" y="8.82" width="8.37" height="8.37" rx=".59" ry=".59"/><path class="cls-3" d="M111.77,8.82h7.19c.33,0,.59,.27,.59,.59v7.19c0,.33-.27,.59-.59,.59h-7.19c-.33,0-.59-.27-.59-.59v-7.19c0-.33,.27-.59,.59-.59Z"/><rect class="cls-3" x="122.05" y="8.82" width="8.37" height="8.37" rx=".59" ry=".59"/><path class="cls-3" d="M133.52,8.82h7.19c.33,0,.59,.27,.59,.59v7.19c0,.33-.27,.59-.59,.59h-7.19c-.33,0-.59-.27-.59-.59v-7.19c0-.33,.27-.59,.59-.59Z"/><path class="cls-3" d="M144.4,8.82h7.19c.33,0,.59,.27,.59,.59v7.19c0,.33-.27,.59-.59,.59h-7.19c-.33,0-.59-.27-.59-.59v-7.19c0-.33,.27-.59,.59-.59Z"/><rect class="cls-3" x="157.14" y="8.82" width="8.37" height="8.37" rx=".59" ry=".59"/><path class="cls-3" d="M168.25,8.82h7.19c.33,0,.59,.27,.59,.59v7.19c0,.33-.27,.59-.59,.59h-7.19c-.33,0-.59-.27-.59-.59v-7.19c0-.33,.27-.59,.59-.59Z"/><rect class="cls-3" x="178.17" y="8.82" width="8.37" height="8.37" rx=".59" ry=".59"/><rect class="cls-3" x="157.14" y="21.46" width="8.37" height="8.37" rx=".59" ry=".59"/><path class="cls-3" d="M168.25,21.46h7.19c.33,0,.59,.27,.59,.59v7.19c0,.33-.27,.59-.59,.59h-7.19c-.33,0-.59-.27-.59-.59v-7.19c0-.33,.27-.59,.59-.59Z"/><path class="cls-3" d="M178.76,21.46h7.19c.33,0,.59,.27,.59,.59v7.19c0,.33-.27,.59-.59,.59h-7.19c-.33,0-.59-.27-.59-.59v-7.19c0-.33,.27-.59,.59-.59Z"/><path class="cls-3" d="M157.73,31.59h7.19c.33,0,.59,.27,.59,.59v7.19c0,.33-.27,.59-.59,.59h-7.19c-.33,0-.59-.27-.59-.59v-7.19c0-.33,.27-.59,.59-.59Z"/><path class="cls-3" d="M168.25,31.59h7.19c.33,0,.59,.27,.59,.59v7.19c0,.33-.27,.59-.59,.59h-7.19c-.33,0-.59-.27-.59-.59v-7.19c0-.33,.27-.59,.59-.59Z"/><path class="cls-3" d="M178.76,31.59h7.19c.33,0,.59,.27,.59,.59v7.19c0,.33-.27,.59-.59,.59h-7.19c-.33,0-.59-.27-.59-.59v-7.19c0-.33,.27-.59,.59-.59Z"/><path class="cls-3" d="M168.25,51.54h7.19c.33,0,.59,.27,.59,.59v7.19c0,.33-.27,.59-.59,.59h-7.19c-.33,0-.59-.27-.59-.59v-7.19c0-.33,.27-.59,.59-.59Z"/><rect class="cls-1" x="157.14" y="61.66" width="8.37" height="8.37" rx=".59" ry=".59"/><path class="cls-3" d="M168.25,61.66h7.19c.33,0,.59,.27,.59,.59v7.19c0,.33-.27,.59-.59,.59h-7.19c-.33,0-.59-.27-.59-.59v-7.19c0-.33,.27-.59,.59-.59Z"/><rect class="cls-1" x="178.17" y="61.66" width="8.37" height="8.37" rx=".59" ry=".59"/></g></g></svg>