<?xml version="1.0" encoding="UTF-8"?><svg id="Ebene_2" xmlns="http://www.w3.org/2000/svg" viewBox="0 0 377.9 37.36"><defs><style>.cls-1{stroke-width:0px;}</style></defs><g id="Ebene_1-2"><path class="cls-1" d="m376.9,29.86v5.72h-4.68v-5.72h4.68m1-1h-6.68v7.72h6.68v-7.72h0Z"/><path class="cls-1" d="m5.64.78H0v35.8h15.16v-5.12H5.64V.78h0Z"/><path class="cls-1" d="m28.14,0c-3.02,0-5.34.73-6.89,2.16-1.58,1.46-2.38,3.51-2.38,6.12v3.86h5.64v-4.07c0-1.46.43-2.95,3.63-2.95,1.3,0,2.27.27,2.88.79.57.5.85,1.2.85,2.16v7.53h-5.03c-5.55,0-8.49,2.86-8.49,8.28v5.2c0,5.42,2.94,8.28,8.49,8.28,1.61,0,3.1-.43,4.43-1.27.78-.49,1.48-1.09,2.08-1.78l.67,1.65.25.62h3.23V8.28c0-2.61-.82-4.67-2.44-6.12-1.59-1.43-3.92-2.16-6.94-2.16h0Zm-1.3,32.24c-1.12,0-1.87-.23-2.22-.7-.42-.55-.63-1.38-.63-2.46v-5.2c0-1.09.21-1.92.63-2.46.35-.46,1.1-.7,2.22-.7h5.03v7.44c-.06.83-.62,1.72-1.65,2.65-1.07.96-2.17,1.43-3.39,1.43h0Z"/><path class="cls-1" d="m54.77,0c-2.21,0-3.95,1.04-5.22,3.11l-.66-1.69-.25-.64h-3.24v35.8h5.64V11.82c0-2.27.42-4,1.24-5.13.76-1.05,1.52-1.56,2.34-1.56.97,0,1.86.29,1.86,2.43v4.59h5.48v-4.38c0-6.41-3.91-7.76-7.19-7.76h0Z"/><path class="cls-1" d="m74.94,0c-3.02,0-5.34.73-6.89,2.16-1.58,1.46-2.38,3.51-2.38,6.12v3.86h5.64v-4.07c0-1.46.43-2.95,3.63-2.95,1.3,0,2.27.27,2.88.79.57.5.85,1.2.85,2.16v7.53h-5.03c-5.55,0-8.49,2.86-8.49,8.28v5.2c0,5.42,2.94,8.28,8.49,8.28,1.61,0,3.1-.43,4.43-1.27.78-.49,1.48-1.09,2.08-1.78l.67,1.65.25.62h3.23V8.28c0-2.61-.82-4.67-2.44-6.12-1.59-1.43-3.92-2.16-6.94-2.16h0Zm-1.3,32.24c-1.12,0-1.87-.23-2.22-.7-.42-.55-.63-1.38-.63-2.46v-5.2c0-1.09.21-1.92.63-2.46.35-.46,1.1-.7,2.22-.7h5.03v7.44c-.06.83-.62,1.72-1.65,2.65-1.07.96-2.17,1.43-3.39,1.43h0Z"/><path class="cls-1" d="m113.01,1.78c2.7,0,4.76.64,6.16,1.92,1.4,1.28,2.11,3.07,2.11,5.36v7.28c0,3.54-1.53,5.79-4.58,6.76l6.4,12.48h-4l-6.08-11.96h-4.21v11.96h-3.64V1.78h7.85m-4.21,18.72h4.21c3.09,0,4.63-1.39,4.63-4.16v-7.28c0-1.32-.4-2.34-1.2-3.07-.8-.73-1.94-1.09-3.43-1.09h-4.21v15.6M113.01.78h-8.85v35.8h5.64v-11.96h2.6l5.81,11.41.28.55h6.25l-.75-1.46-5.89-11.5c2.74-1.28,4.18-3.78,4.18-7.29v-7.28c0-2.57-.82-4.62-2.43-6.09-1.59-1.45-3.89-2.19-6.84-2.19h0Zm-3.21,5.12h3.21c1.23,0,2.15.28,2.76.83.59.53.87,1.3.87,2.33v7.28c0,1.56-.43,3.16-3.63,3.16h-3.21V5.9h0Z"/><path class="cls-1" d="m138.41,1c2.93,0,5.14.63,6.63,1.9,1.49,1.27,2.24,3.06,2.24,5.38v20.8c0,2.32-.74,4.12-2.21,5.38-1.47,1.27-3.68,1.9-6.6,1.9s-5.14-.63-6.63-1.9c-1.49-1.27-2.24-3.06-2.24-5.38V8.28c0-2.32.74-4.12,2.21-5.38,1.47-1.27,3.67-1.9,6.6-1.9m.03,32.24c3.47,0,5.2-1.39,5.2-4.16V8.28c0-2.77-1.73-4.16-5.2-4.16s-5.2,1.39-5.2,4.16v20.8c0,2.77,1.73,4.16,5.2,4.16m-.03-33.24c-3.16,0-5.6.72-7.26,2.14-1.7,1.46-2.56,3.52-2.56,6.14v20.8c0,2.62.87,4.69,2.59,6.14,1.67,1.42,4.12,2.14,7.28,2.14s5.6-.72,7.26-2.14c1.7-1.46,2.56-3.52,2.56-6.14V8.28c0-2.62-.87-4.68-2.59-6.14-1.67-1.42-4.12-2.14-7.28-2.14h0Zm.03,32.24c-3.72,0-4.2-1.69-4.2-3.16V8.28c0-1.47.48-3.16,4.2-3.16s4.2,1.69,4.2,3.16v20.8c0,1.47-.48,3.16-4.2,3.16h0Z"/><path class="cls-1" d="m164.64,1c2.84,0,4.99.63,6.45,1.9,1.46,1.27,2.18,3.06,2.18,5.38v4.94h-3.64v-4.94c0-2.77-1.65-4.16-4.94-4.16s-4.94,1.39-4.94,4.16v20.8c0,2.77,1.65,4.16,4.94,4.16s4.94-1.39,4.94-4.16v-2.86h3.64v2.86c0,2.32-.71,4.12-2.13,5.38-1.42,1.27-3.55,1.9-6.4,1.9s-4.99-.63-6.45-1.9-2.18-3.06-2.18-5.38V8.28c0-2.32.71-4.12,2.13-5.38,1.42-1.27,3.55-1.9,6.4-1.9m0-1c-3.08,0-5.46.72-7.06,2.15-1.64,1.46-2.47,3.52-2.47,6.13v20.8c0,2.61.85,4.68,2.53,6.14,1.64,1.42,4.03,2.14,7.1,2.14s5.46-.72,7.06-2.15c1.64-1.46,2.47-3.52,2.47-6.13v-3.86h-5.64v3.86c0,1.56-.47,3.16-3.94,3.16s-3.94-1.6-3.94-3.16V8.28c0-1.56.47-3.16,3.94-3.16s3.94,1.6,3.94,3.16v5.94h5.64v-5.94c0-2.61-.85-4.68-2.53-6.14-1.64-1.42-4.03-2.14-7.1-2.14h0Z"/><path class="cls-1" d="m199.17,1.78l-9.2,14.56,9.83,19.24h-4l-8.01-15.76-1.72,2.76v13h-3.64V1.78h3.64v14.35l9.05-14.35h4.06m1.82-1h-6.42l-.29.47-7.2,11.42V.78h-5.64v35.8h5.64v-13.71l.63-1.01,7.21,14.18.28.55h6.25l-.74-1.45-9.57-18.73,8.9-14.08.97-1.53h0Z"/><path class="cls-1" d="m213.78,0c-3.08,0-5.46.72-7.06,2.15-1.64,1.46-2.47,3.52-2.47,6.13v20.8c0,2.61.85,4.68,2.53,6.14,1.64,1.42,4.03,2.14,7.1,2.14s5.46-.72,7.06-2.15c1.64-1.46,2.47-3.52,2.47-6.13v-3.86h-5.64v3.86c0,1.56-.47,3.16-3.94,3.16s-3.94-1.6-3.94-3.16v-8.36h13.52v-12.44c0-2.61-.85-4.68-2.53-6.14-1.64-1.42-4.03-2.14-7.1-2.14h0Zm-3.89,15.6v-7.32c0-1.56.47-3.16,3.94-3.16s3.94,1.6,3.94,3.16v7.32h-7.88Z"/><path class="cls-1" d="m241.81,0c-2.69,0-4.92,1.03-6.65,3.07l-.63-1.65-.25-.64h-3.25v35.8h5.64V9.32c0-.81.54-1.72,1.6-2.7,1.1-1.01,2.26-1.5,3.54-1.5.82,0,1.9.12,2.36.71.43.54.64,1.37.64,2.45v28.3h5.64V8.28c0-5.42-2.99-8.28-8.64-8.28h0Z"/><path class="cls-1" d="m266.98,0c-3.15,0-5.57.72-7.19,2.15-1.66,1.46-2.5,3.52-2.5,6.13,0,1.68.22,3.11.67,4.24.45,1.15,1.27,2.32,2.43,3.49l9.16,8.95c.68.68,1.14,1.32,1.35,1.89.22.6.33,1.44.33,2.52,0,.9-.29,1.55-.92,2.05-.68.54-1.77.82-3.22.82s-2.54-.28-3.22-.82c-.63-.5-.93-1.18-.93-2.13v-5.63h-5.64v5.42c0,3.78,1.7,8.28,9.79,8.28s9.79-4.5,9.79-8.28c0-1.67-.21-3.09-.63-4.22-.42-1.14-1.19-2.32-2.28-3.52l-.02-.03-.03-.02-9.31-8.94c-.72-.66-1.17-1.26-1.36-1.79-.2-.58-.31-1.43-.31-2.53,0-.91.28-1.6.87-2.1.62-.53,1.64-.8,3.02-.8s2.39.27,3.02.8c.59.5.87,1.2.87,2.15v5.63h5.64v-5.42c0-3.78-1.63-8.28-9.37-8.28h0Z"/><path class="cls-1" d="m296.89.78h-13.44v28.82c0,2.46.71,4.38,2.1,5.74,1.38,1.34,3.22,2.02,5.45,2.02s4.06-.68,5.41-2.03c1.35-1.35,2.04-3.28,2.04-5.73v-6.98h-5.64v7.19c0,.79-.17,1.4-.52,1.87-.2.26-.53.57-1.31.57s-1.14-.34-1.34-.59c-.37-.48-.55-1.09-.55-1.84V5.9h7.8V.78h0Z"/><path class="cls-1" d="m312.48,0c-3.08,0-5.46.72-7.06,2.15-1.64,1.46-2.47,3.52-2.47,6.13v20.8c0,2.61.85,4.68,2.53,6.14,1.64,1.42,4.03,2.14,7.1,2.14s5.46-.72,7.06-2.15c1.64-1.46,2.47-3.52,2.47-6.13v-3.86h-5.64v3.86c0,1.56-.47,3.16-3.94,3.16s-3.94-1.6-3.94-3.16v-8.36h13.52v-12.44c0-2.61-.85-4.68-2.53-6.14-1.64-1.42-4.03-2.14-7.1-2.14h0Zm-3.89,15.6v-7.32c0-1.56.47-3.16,3.94-3.16s3.94,1.6,3.94,3.16v7.32h-7.88Z"/><path class="cls-1" d="m335.37.78h-5.64v35.8h5.64V.78h0Z"/><path class="cls-1" d="m354.54,0c-2.69,0-4.92,1.03-6.65,3.07l-.63-1.65-.25-.64h-3.25v35.8h5.64V9.32c0-.81.54-1.72,1.6-2.7,1.1-1.01,2.26-1.5,3.54-1.5.82,0,1.9.12,2.36.71.43.54.64,1.37.64,2.45v28.3h5.64V8.28c0-5.42-2.99-8.28-8.64-8.28h0Z"/></g></svg>