<?xml version="1.0" encoding="UTF-8"?><svg id="Ebene_2" xmlns="http://www.w3.org/2000/svg" viewBox="0 0 203.25 203.24"><defs><style>.cls-1{stroke-width:0px;}</style></defs><g id="Ebene_1-2"><path class="cls-1" d="m168.23,94.74c0,4.44,0,8.89,0,13.33,0,2.86-1.31,4.14-4.2,4.15-2.44.01-4.89-.01-7.33,0-1.92.02-2.45.55-2.46,2.5-.01,4.78,0,9.55,0,14.33,0,2.86-1.3,4.12-4.19,4.16-2.39.03-2.79.44-2.8,2.83q-.02,4.28,4.21,4.25c2.48-.01,2.83-.38,2.87-2.93.04-2.75,1.36-4.05,4.12-4.07,1.94-.01,3.89-.02,5.83,0,2.56.03,3.9,1.36,3.96,3.9.06,2.81.3,3.04,3.04,3.1,2.63.05,3.95,1.39,3.96,4.06.01,7,0,14,0,21,0,2.51.39,2.91,2.86,2.94,2.48.03,4.08,1.35,4.13,3.39.05,2.09-1.6,3.49-4.16,3.53-2.41.03-2.82.44-2.84,2.8q-.03,4.32,4.35,4.28c2.26-.02,2.7-.46,2.73-2.73.04-3,1.26-4.23,4.26-4.27,2.27-.03,2.71-.47,2.74-2.73.04-3.01,1.28-4.26,4.26-4.27,1.94,0,3.89-.03,5.83,0,2.28.04,3.87,1.53,3.82,3.53-.05,1.94-1.6,3.32-3.8,3.38-2.94.09-3.12.26-3.19,3.11-.06,2.46-1.38,3.81-3.81,3.89-3,.09-3.08.17-3.2,3.27-.09,2.32-1.45,3.7-3.8,3.72-4.61.03-9.22,0-13.83.01-3.11,0-3.26.15-3.37,3.26-.11,2.95-2.9,4.76-5.15,3.16-.86-.61-1.56-1.93-1.69-3-.26-2.19-.11-4.44-.07-6.66.05-2.24,1.43-3.59,3.66-3.68,3.25-.14,3.33-.22,3.33-3.48,0-.5,0-1,0-1.5,0-1.35-.66-2.09-2.02-2.1-3.33-.02-6.67-.01-10,0-1.36,0-2.04.71-2.05,2.07,0,.44.01.89-.01,1.33-.11,2.14-1.45,3.52-3.6,3.58-2.16.06-4.33.04-6.5,0-2.43-.04-3.79-1.42-3.81-3.87-.03-4.83,0-9.66-.01-14.5,0-2.13-.5-2.61-2.67-2.63q-4.41-.04-4.41,4.39c0,4.5,0,9,0,13.5,0,2.87.25,3.14,3.11,3.18,1.58.02,2.81.58,3.53,2.04.6,1.22.56,2.55-.4,3.4-.83.74-2.06,1.33-3.16,1.43-2.83.25-3.08.38-3.08,3.28,0,2.33.02,4.66,0,7-.03,2.19-1.45,3.74-3.39,3.78-1.99.04-3.46-1.55-3.52-3.83-.08-2.96-.29-3.16-3.31-3.16-2.28,0-4.55.02-6.83,0-2.45-.03-3.79-1.39-3.86-3.82-.08-2.93-.25-3.1-3.13-3.17-2.45-.06-3.82-1.39-3.86-3.83-.03-2.11-.04-4.22,0-6.33.04-2.34,1.41-3.69,3.75-3.77,3.04-.1,3.14-.2,3.24-3.23.07-2.19,1.48-3.74,3.42-3.76,1.99-.03,3.47,1.57,3.49,3.85.03,2.61-.01,5.22.02,7.83.02,1.71.6,2.25,2.32,2.31,4.74.15,4.75.14,4.75-4.55,0-2.22,0-4.44,0-6.67,0-2.42-.42-2.83-2.77-2.87-.28,0-.56.01-.83-.01-1.95-.16-3.39-1.63-3.39-3.45,0-1.82,1.45-3.29,3.39-3.45.22-.02.44,0,.67-.01,2.55-.04,2.9-.38,2.93-2.87,0-.06,0-.11,0-.17.05-2.63,1.39-3.94,4.06-3.96,2.5-.02,5,.01,7.5,0,1.84-.01,2.39-.56,2.44-2.36q.13-4.72-4.58-4.72c-2.33,0-4.67-.01-7,0-1.95.02-2.46.54-2.51,2.46,0,.39.02.78-.01,1.17-.16,1.94-1.66,3.38-3.48,3.37-1.82-.02-3.31-1.47-3.41-3.42-.07-1.44-.02-2.89-.02-4.33,0-5.33,0-10.66,0-16,0-2.54,1.43-4.2,3.53-4.15,2.04.05,3.35,1.65,3.38,4.13.04,2.48.38,2.82,2.94,2.86,2.75.05,4.02,1.33,4.06,4.14.03,2.43.44,2.85,2.77,2.86q4.35.03,4.31-4.32c-.02-2.28-.46-2.73-2.7-2.76-.17,0-.33,0-.5,0-2.35-.07-3.74-1.41-3.79-3.73-.04-2.17-.04-4.33,0-6.5.05-2.24,1.43-3.59,3.66-3.68,3.25-.14,3.33-.22,3.33-3.48,0-.44.01-.89,0-1.33-.06-1.7-.61-2.23-2.35-2.28-.44-.01-.89.02-1.33-.02-1.86-.17-3.26-1.61-3.3-3.37-.05-1.81,1.4-3.33,3.32-3.52.17-.02.33,0,.5-.01,2.93-.08,3.1-.25,3.17-3.13.06-2.45,1.39-3.8,3.82-3.87.28,0,.56,0,.83,0,1.73-.05,2.28-.59,2.34-2.29.13-3.7,1.02-4.6,4.65-4.71,1.74-.05,2.29-.59,2.35-2.28.01-.33,0-.67,0-1q0-3.58-3.49-3.81c-2.04-.13-3.54-1.65-3.5-3.52.04-1.83,1.49-3.34,3.46-3.36,4.66-.06,9.33-.07,14,0,2.15.03,3.42,1.56,3.43,3.89.02,4.5,0,9,0,13.5Zm-20.99,63.03c0,2.72-.02,5.44,0,8.16.02,1.81.58,2.37,2.42,2.37,5.44.02,10.88.02,16.33,0,1.72,0,2.32-.59,2.33-2.29.02-5.5.02-11,0-16.49,0-1.7-.6-2.28-2.33-2.29-5.44-.02-10.88-.02-16.33,0-1.84,0-2.4.56-2.41,2.37-.02,2.72,0,5.44,0,8.16Zm14.09-55.81c0-3.66-.08-3.74-3.73-3.73-.5,0-1-.02-1.5.02-1.77.13-1.87,1.38-1.87,2.76,0,3.57.21,4.13,1.83,4.29.6.06,1.22.02,1.83.02,3.22,0,3.44-.22,3.44-3.36Z"/><path class="cls-1" d="m56.31,17.6c0-4.39,0-8.77,0-13.16,0-2.53,1.44-4.19,3.55-4.13,2.04.06,3.37,1.66,3.38,4.13.01,2.44-.01,4.89,0,7.33.01,1.97.53,2.48,2.44,2.53,3.5.08,4.46,1.06,4.56,4.63.05,1.8.59,2.33,2.43,2.37,3.5.08,4.47,1.07,4.57,4.62.05,1.81.58,2.36,2.42,2.37,3.11.02,6.22.02,9.33,0,1.72-.01,2.27-.59,2.32-2.3.1-3.11,1.3-4.71,3.5-4.68,2.22.03,3.42,1.7,3.42,4.76,0,1.78.02,3.55,0,5.33-.04,2.36-1.39,3.73-3.7,3.82-3.15.12-3.29.26-3.29,3.34,0,2.78-.02,5.55,0,8.33.01,1.83.56,2.36,2.39,2.4.22,0,.44,0,.67,0q3.71,0,4.02-3.62c.17-1.94,1.65-3.38,3.47-3.37,1.82.01,3.35,1.46,3.42,3.41.08,2.33.07,4.67,0,7-.06,2.11-1.49,3.41-3.67,3.51-1.13.05-2.73-.38-3.02,1.04-.33,1.67-.08,3.48.1,5.21.03.32.94.65,1.49.79.52.14,1.1.01,1.66.05,1.96.13,3.41,1.57,3.45,3.39.03,1.88-1.47,3.39-3.5,3.51-.5.03-1,0-1.5.02-1.27.04-1.94.7-1.98,1.97-.02.5.01,1-.02,1.5-.12,2.04-1.62,3.54-3.5,3.51-1.82-.03-3.27-1.48-3.41-3.43-.02-.33,0-.67-.01-1-.03-2.04-.53-2.55-2.58-2.55-3.05-.01-6.11-.02-9.16,0-1.73.01-2.28.59-2.33,2.29-.13,3.7-1.01,4.59-4.66,4.7-1.78.06-2.3.6-2.34,2.46-.08,3.41-1.13,4.48-4.48,4.54-1.96.04-2.48.54-2.52,2.45,0,.28,0,.56,0,.83q0,3.56,3.51,3.79c2.03.14,3.52,1.65,3.48,3.53-.04,1.83-1.49,3.31-3.46,3.37-2.33.07-4.67.07-7,0-2.04-.06-3.43-1.47-3.45-3.54-.05-4.61-.05-9.22,0-13.83.02-2.12,1.47-3.45,3.63-3.54q3.24-.15,3.36-3.28c.09-2.32,1.45-3.65,3.8-3.72,3.01-.09,3.2-.28,3.2-3.27,0-2.22-.01-4.44,0-6.66.02-2.74,1.34-4.05,4.12-4.06,2.5-.01,5,.02,7.5,0,1.81-.02,2.36-.58,2.37-2.41.02-3.11.02-6.22,0-9.33-.01-1.72-.59-2.26-2.3-2.32-3.69-.13-4.57-1-4.69-4.67-.05-1.73-.59-2.27-2.3-2.33-3.69-.13-4.59-1.01-4.7-4.66-.05-1.73-.59-2.28-2.29-2.34-.44-.01-.89,0-1.33,0-3.22,0-3.29.07-3.44,3.36-.1,2.14-1.61,3.69-3.55,3.63-1.89-.05-3.35-1.55-3.37-3.63-.04-4.66-.01-9.33-.01-13.99Z"/><path class="cls-1" d="m121.9,101.35c.03,11.27-9.12,20.5-20.37,20.54-11.27.04-20.52-9.13-20.54-20.37-.03-11.28,9.12-20.51,20.37-20.55,11.27-.04,20.51,9.13,20.55,20.37Z"/><path class="cls-1" d="m63.24,153.6c0,1.33.03,2.67,0,4-.07,2.07-1.5,3.58-3.39,3.62-1.94.04-3.48-1.51-3.52-3.65-.05-2.67,0-5.33-.02-8-.02-1.73-.58-2.31-2.29-2.33-2.56-.03-5.11,0-7.67-.01-2.42-.02-4.05-1.44-4.03-3.49.01-2.05,1.62-3.41,4.07-3.44,2.54-.04,2.91-.4,2.92-2.88,0-.33,0-.67,0-1,0-2.86-.25-3.11-3.12-3.18-2.99-.07-4.76-2.66-3.44-5.07.7-1.29,1.85-1.86,3.3-1.86,2.11,0,4.22-.02,6.33,0,2.45.03,3.82,1.39,3.85,3.82.03,2.56,0,5.11.01,7.67.01,1.95.54,2.46,2.46,2.5.33,0,.67,0,1,0,3.44,0,3.45,0,3.6-3.37.1-2.15,1.43-3.51,3.56-3.63q3.29-.19,3.44-3.37c.1-2.08,1.5-3.58,3.39-3.63,1.94-.05,3.43,1.5,3.54,3.65.06,1.12-.4,2.74,1.01,3.03,1.67.35,3.48.09,5.21-.05.3-.02.6-.73.79-1.17.12-.29.09-.66.06-.99-.32-2.84,1.57-4.4,3.39-4.47,2.18-.08,3.49,1.59,3.55,4.47.04,1.96.54,2.48,2.45,2.52.28,0,.56,0,.83,0q3.56,0,3.8-3.51c.14-2.03,1.66-3.53,3.53-3.48,1.83.05,3.24,1.5,3.38,3.47.02.28,0,.56,0,.83.03,2.19.48,2.66,2.61,2.69.44,0,.9-.02,1.33.04,1.75.26,3.06,1.75,3.05,3.43,0,1.68-1.33,3.16-3.08,3.41-.33.05-.67.03-1,.03-2.53.04-2.88.39-2.92,2.89-.04,2.78-1.32,4.07-4.08,4.12-2.53.04-2.88.39-2.92,2.88-.04,2.47-1.37,4.07-3.41,4.11-2.1.04-3.48-1.61-3.51-4.17-.03-2.41-.41-2.79-2.82-2.82-2.9-.04-4.15-1.28-4.18-4.18-.03-2.4-.44-2.82-2.81-2.82-2.89,0-5.78-.01-8.67,0-2.06.01-2.56.51-2.59,2.54-.06,3.29-1.16,4.41-4.4,4.46-2.07.03-2.57.52-2.59,2.54-.01,1.28,0,2.56,0,3.83Z"/><path class="cls-1" d="m51.43,25.77c-.21,4.15-.08,8.36-.71,12.45-1.04,6.78-5.53,11.79-12.33,12.36-8.36.71-16.87.72-25.23,0-6.78-.58-11.24-5.24-12.23-12.03-1.24-8.47-1.24-17.08,0-25.55C1.91,6.2,6.37,1.81,13.15.89c8.53-1.16,17.19-1.23,25.72.09,6.8,1.06,11.52,6.59,12.03,13.47.28,3.75.05,7.54.05,11.31.16,0,.33,0,.49,0Zm-25.82,18.21c0,.1,0,.21,0,.31,1.83,0,3.67.04,5.5-.01,1.88-.05,3.78-.08,5.64-.32,4.07-.53,6.94-3.17,7.19-7.3.36-6.14.27-12.31.33-18.47.01-1.21-.13-2.44-.31-3.64-.57-3.77-3.23-6.76-7.03-6.9-7.42-.27-14.86-.27-22.28,0-3.87.14-6.85,3.16-6.99,7.05-.27,7.36-.28,14.75,0,22.12.15,3.97,3.14,6.78,7.15,7.1,3.58.29,7.2.06,10.81.06Z"/><path class="cls-1" d="m25.77,152.11c4.15.21,8.36.08,12.45.7,6.79,1.04,11.78,5.51,12.36,12.32.71,8.36.73,16.87,0,25.22-.59,6.86-5.31,11.6-12.18,12.2-8.35.73-16.87.73-25.22.01-6.86-.59-11.34-5.32-12.27-12.18-1.16-8.58-1.25-17.3.11-25.88,1.05-6.59,6.58-11.34,13.27-11.85,3.8-.29,7.65-.05,11.47-.05,0-.17,0-.33,0-.5Zm-18.21,25.66c-.1,0-.2,0-.3,0,0,1.83-.04,3.66.01,5.49.05,1.83.08,3.67.32,5.47.53,4.07,3.18,7.02,7.28,7.18,7.3.28,14.63.27,21.93-.01,4-.15,6.97-3.11,7.12-7.09.28-7.36.28-14.74,0-22.1-.15-3.98-3.13-6.93-7.13-7.09-7.3-.28-14.63-.29-21.93,0-4.1.16-6.9,3.1-7.24,7.19-.29,3.63-.06,7.31-.06,10.96Z"/><path class="cls-1" d="m177.78.04c4.42.3,8.9.26,13.25.99,6.49,1.09,11.48,6.53,11.79,13.11.36,7.75.38,15.54,0,23.28-.33,6.67-5.33,12.07-11.99,13.1-8.47,1.31-17.08,1.21-25.55.11-6.84-.89-11.48-5.53-12.36-12.37-1.1-8.53-1.22-17.19.13-25.72,1.06-6.64,6.67-11.42,13.42-11.89,3.75-.26,7.54-.05,11.31-.05,0-.19.01-.39.02-.58Zm-.09,43.96c3.72,0,7.45.24,11.14-.06,4.01-.33,6.94-3.13,7.1-7.14.29-7.31.3-14.65.01-21.95-.17-4.14-3.07-6.93-7.18-7.25-4.75-.37-9.54-.32-14.31-.35-2.66-.01-5.34.04-7.97.36-3.7.46-6.32,3.2-6.9,6.89-.19,1.2-.33,2.43-.32,3.64.06,6.22-.02,12.44.35,18.64.24,4.03,3.1,6.82,7.1,7.16,3.63.3,7.31.06,10.98.07Z"/><path class="cls-1" d="m179.44,133.22c-2.44,0-4.89.03-7.33,0-2.35-.03-3.76-1.4-3.78-3.72-.04-4.5-.04-8.99,0-13.49.02-2.24,1.43-3.62,3.66-3.67,2.16-.05,4.33-.04,6.5,0,2.32.04,3.7,1.43,3.73,3.78.04,2.61,0,5.22.02,7.83.02,1.82.57,2.34,2.41,2.38.22,0,.44,0,.67,0q3.7,0,4.02-3.62c.17-1.94,1.5-3.3,3.47-3.36,2.33-.07,4.67-.07,6.99,0,1.96.06,3.38,1.44,3.4,3.4.07,4.66.07,9.33,0,13.99-.03,2.11-1.49,3.4-3.68,3.49-3.2.13-3.3.23-3.3,3.5,0,.44.01.89,0,1.33-.03,1.51.68,2.28,2.21,2.26.55,0,1.12-.04,1.66.03,1.76.23,3.09,1.67,3.12,3.37.03,1.75-1.33,3.27-3.17,3.48-.55.06-1.11.03-1.66.03-1.44,0-2.1.71-2.16,2.15-.18,4.08-1.03,4.85-5.16,4.85-1.67,0-3.33.03-5,0-2.18-.05-3.73-1.5-3.74-3.44,0-1.93,1.55-3.39,3.72-3.47,3.13-.12,3.28-.27,3.28-3.36,0-.61.01-1.22-.02-1.83-.06-1.19-.7-1.83-1.89-1.88-.61-.03-1.23.02-1.83-.04-1.85-.18-3.24-1.65-3.26-3.41-.02-1.75,1.35-3.24,3.2-3.46q3.82-.47,3.79-4.36c-.02-2.27-.47-2.74-2.72-2.75-2.39-.01-4.77,0-7.16,0Z"/><path class="cls-1" d="m129.82,70.22c-2.22,0-4.44.02-6.66,0-2.28-.03-3.87-1.52-3.83-3.51.04-1.94,1.59-3.33,3.79-3.4,3.02-.09,3.2-.28,3.21-3.26,0-.56,0-1.11,0-1.67,0-1.43-.69-2.16-2.14-2.16-.28,0-.56,0-.83,0q-3.76-.01-4.13,3.68c-.19,1.93-1.54,3.25-3.53,3.3-2.28.06-4.55.06-6.83,0-2.05-.06-3.55-1.59-3.54-3.46.02-1.88,1.52-3.33,3.58-3.43.5-.02,1,0,1.5-.02,1.19-.05,1.88-.69,1.89-1.88.03-3.44.03-6.89,0-10.33-.01-1.2-.73-1.81-1.91-1.85-.5-.02-1,0-1.5-.02-2.13-.11-3.5-1.47-3.55-3.62-.05-2.16-.04-4.33,0-6.5.03-2.2,1.45-3.74,3.39-3.79,1.99-.04,3.46,1.55,3.52,3.83.08,2.96.29,3.16,3.3,3.16,2.22,0,4.44-.01,6.66,0,2.42.02,4.05,1.45,4.02,3.49-.03,1.99-1.61,3.37-3.93,3.42-2.77.06-3.05.35-3.06,3.08q0,4.02,3.96,4.01c2.77,0,3.08-.31,3.13-3,.04-2.41,1.48-4.04,3.53-3.99,1.99.05,3.36,1.63,3.38,3.96.02,2.5,0,5,0,7.5.01,1.96.53,2.48,2.43,2.53,3.48.08,4.56,1.18,4.56,4.63,0,1.83.03,3.67,0,5.5-.04,2.34-1.41,3.73-3.74,3.77-2.22.04-4.44,0-6.66,0Z"/><path class="cls-1" d="m185.84,56.32c4.38,0,8.77,0,13.15,0,2.95,0,4.22,1.3,4.23,4.29,0,4.16.01,8.33,0,12.49,0,2.77-1.31,4.08-4.06,4.12-2.58.04-2.88.36-2.94,3.03-.05,2.57-1.37,3.93-3.88,3.96-2.05.03-4.11.03-6.16,0-2.28-.03-3.88-1.5-3.85-3.49.03-1.93,1.58-3.34,3.77-3.41,3.02-.1,3.12-.19,3.22-3.24.08-2.33,1.43-3.68,3.76-3.76,3.09-.1,3.24-.25,3.24-3.4,0-.55.02-1.11-.01-1.66-.1-1.58-.71-2.02-2.75-2.04-3.66-.03-4.19.21-4.32,1.97-.04.55.02,1.11-.03,1.66-.16,1.94-1.66,3.38-3.47,3.36-1.82-.02-3.27-1.47-3.41-3.43-.02-.28,0-.55,0-.83-.03-2.26-.48-2.72-2.73-2.73-2.33,0-4.66,0-6.99,0-2.6,0-4.24-1.33-4.26-3.41-.03-2.09,1.63-3.48,4.19-3.49,4.44,0,8.88,0,13.32,0Z"/><path class="cls-1" d="m85.14,161.31c3.33,0,6.66,0,9.99,0,2.86,0,3.13-.25,3.17-3.12.02-1.58.59-2.81,2.04-3.53,1.22-.6,2.55-.56,3.4.4.74.83,1.33,2.06,1.42,3.16.25,2.77.36,3.03,3.11,3.08,2.33.05,3.91,1.41,3.95,3.4.04,2.05-1.58,3.48-3.99,3.52-2.66.05-2.95.34-3,2.97-.04,2.42-1.45,4.05-3.49,4.02-2.04-.02-3.39-1.63-3.43-4.09-.04-2.52-.41-2.9-2.89-2.9-7.05,0-14.1.02-21.16,0-3.08-.01-4.88-2.7-3.47-5.14.73-1.27,1.9-1.79,3.35-1.78,3.66.01,7.33,0,10.99,0Z"/><path class="cls-1" d="m119.27.31c3.27,0,6.54,0,9.82,0,2.85.01,4.13,1.32,4.14,4.2,0,1.94.02,3.88,0,5.82-.03,2.45-1.38,3.85-3.8,3.87-4.44.03-8.87.03-13.31,0-2.41-.02-3.74-1.42-3.79-3.88-.07-2.85-.25-3.03-3.18-3.11-2.27-.07-3.86-1.54-3.81-3.53.05-1.94,1.6-3.35,3.79-3.37,3.38-.03,6.77,0,10.15,0Z"/><path class="cls-1" d="m14.16,70.24c-3.27,0-6.54.01-9.82,0-2.41-.01-4.03-1.42-4.04-3.47,0-2.05,1.61-3.44,4.03-3.48,2.62-.04,2.92-.34,2.96-2.99.05-2.66,1.36-3.98,4.01-4,2-.02,3.99-.02,5.99,0,2.55.03,3.89,1.36,3.95,3.89.07,2.84.25,3.02,3.19,3.1,2.26.06,3.85,1.54,3.8,3.54-.04,1.94-1.59,3.38-3.77,3.4-3.44.03-6.88,0-10.31.01Z"/><path class="cls-1" d="m185.75,203.23c-4.44,0-8.88,0-13.32,0-2.45,0-4.07-1.36-4.1-3.41-.03-2.09,1.62-3.5,4.17-3.5,4.61,0,9.21,0,13.82,0,2.62,0,2.96-.34,3-2.96.05-3.19,2.74-5.01,5.21-3.51,1.26.76,1.7,1.95,1.71,3.39.03,2.78.29,3.02,3.04,3.08,2.32.05,3.9,1.41,3.94,3.4.04,2.05-1.59,3.5-4,3.51-4.49.02-8.99,0-13.48,0Z"/><path class="cls-1" d="m77.24,108.79c0,2.17.02,4.33,0,6.5-.03,2.56-1.36,3.89-3.9,3.95-2.79.06-3.03.3-3.09,3.04-.05,2.33-1.4,3.9-3.4,3.95-2.05.04-3.49-1.58-3.53-3.99-.05-2.66-.34-2.96-2.96-3-2.43-.04-4.04-1.44-4.03-3.48.01-2.05,1.63-3.43,4.07-3.44,2.44-.01,4.89,0,7.33,0,2.06-.01,2.58-.52,2.59-2.53.02-2.5-.01-5,0-7.5.02-2.33,1.39-3.91,3.38-3.96,2.05-.05,3.51,1.58,3.53,3.98.02,2.17,0,4.33,0,6.5Z"/><path class="cls-1" d="m28.24,122.74c0,2.22.03,4.44,0,6.67-.03,2.43-1.41,3.79-3.86,3.82-2.11.03-4.22.03-6.33,0-2.17-.04-3.72-1.5-3.73-3.44-.01-1.94,1.54-3.4,3.7-3.49,1.13-.05,2.73.37,3.01-1.05.32-1.67.06-3.48-.13-5.21-.04-.32-.95-.63-1.51-.76-.58-.13-1.22,0-1.83-.06-1.84-.18-3.23-1.66-3.25-3.42-.02-1.76,1.35-3.37,3.19-3.45,2.49-.11,5-.11,7.5,0,1.92.08,3.19,1.56,3.24,3.57.05,2.28.01,4.56.01,6.83Z"/><path class="cls-1" d="m203.23,101.75c0,2.22.02,4.44,0,6.65-.03,2.27-1.53,3.86-3.52,3.81-1.94-.05-3.31-1.59-3.38-3.79-.09-3-.28-3.2-3.26-3.2-2.27,0-4.55.02-6.82,0-2.3-.02-3.9-1.44-3.91-3.42-.02-1.99,1.58-3.45,3.86-3.47,2.61-.03,5.21.01,7.82-.02,1.71-.02,2.25-.6,2.31-2.31.1-3.1,1.31-4.71,3.5-4.67,2.21.04,3.41,1.71,3.41,4.77,0,1.89,0,3.77,0,5.66Z"/><path class="cls-1" d="m85.04,7.31c1.11,0,2.22,0,3.33,0,2.52,0,2.91-.39,2.95-2.85,0-.33-.01-.67.03-1,.23-1.77,1.65-3.09,3.35-3.14,1.75-.05,3.4,1.3,3.49,3.13.13,2.55.13,5.11,0,7.65-.1,1.89-1.62,3.08-3.68,3.11-2.5.04-4.99,0-7.49.01-2.29,0-2.74.45-2.77,2.69,0,.39.02.78-.03,1.16-.24,1.83-1.77,3.18-3.52,3.13-1.7-.05-3.24-1.37-3.32-3.14-.12-2.55-.13-5.11,0-7.65.09-1.83,1.58-3.02,3.51-3.12.11,0,.22,0,.33,0,1.28,0,2.55,0,3.83,0Z"/><path class="cls-1" d="m38.71,70.3c2.22,0,4.44-.02,6.66,0,2.29.03,3.88,1.49,3.86,3.48-.01,2-1.6,3.42-3.9,3.44-2.55.02-5.11,0-7.66.01-1.84.02-2.37.56-2.42,2.37,0,.33,0,.67,0,1-.1,2.07-1.51,3.57-3.4,3.61-1.94.04-3.48-1.51-3.52-3.65-.05-2.11-.03-4.22,0-6.33.03-2.56,1.36-3.92,3.9-3.95,2.17-.03,4.33,0,6.5,0Z"/><path class="cls-1" d="m21.31,94.72c0-2.17-.02-4.33,0-6.5.02-2.3,1.44-3.89,3.43-3.92,2-.02,3.47,1.57,3.5,3.85.03,2.61-.01,5.22.02,7.83.02,1.72.61,2.45,2.31,2.27,3.01-.31,4.69,1.7,4.67,3.56-.03,2.22-1.7,3.42-4.76,3.42-1.83,0-3.67.04-5.5,0-2.23-.05-3.62-1.44-3.66-3.68-.04-2.28,0-4.55-.01-6.83Z"/><path class="cls-1" d="m101.68,203.23c-2.16,0-4.33.02-6.49,0-2.45-.03-3.83-1.38-3.87-3.81-.03-2.11-.03-4.22,0-6.33.03-2.19,1.45-3.74,3.39-3.78,1.99-.04,3.46,1.55,3.52,3.82.08,2.97.29,3.17,3.29,3.17,2.28,0,4.55-.02,6.83,0,2.29.03,3.88,1.48,3.88,3.46,0,1.99-1.6,3.4-3.89,3.45-.06,0-.11,0-.17,0-2.16,0-4.33,0-6.49,0Z"/><path class="cls-1" d="m35.31,115.74c0-2.17-.02-4.33,0-6.5.02-2.32,1.41-3.9,3.41-3.93,1.99-.03,3.46,1.56,3.52,3.83.08,2.92.24,3.09,3.14,3.16,2.28.06,3.87,1.5,3.85,3.5-.02,1.99-1.61,3.39-3.92,3.44-2.77.06-3.02.31-3.08,3.06-.05,2.32-1.42,3.9-3.41,3.94-2.05.04-3.5-1.59-3.52-3.99-.02-2.17,0-4.33,0-6.5Z"/><path class="cls-1" d="m150.79,203.23c-2.22,0-4.44.03-6.66,0-2.27-.03-3.86-1.53-3.81-3.53.05-1.94,1.59-3.32,3.79-3.38,3-.09,3.09-.19,3.2-3.26.08-2.17,1.51-3.73,3.44-3.73,1.93,0,3.39,1.54,3.47,3.7q.12,3.15,3.34,3.29c2.15.1,3.69,1.59,3.65,3.52-.04,1.88-1.54,3.33-3.61,3.38-2.27.05-4.55.01-6.82.01Z"/><path class="cls-1" d="m126.33,28.31c0-1.16-.04-2.33,0-3.49.09-2.03,1.62-3.53,3.49-3.5,1.82.03,3.26,1.48,3.39,3.44.03.44.02.89.01,1.33-.03,1.52.72,2.25,2.24,2.22.39,0,.78-.01,1.16,0,2.14.11,3.53,1.44,3.58,3.58.06,2.22.05,4.43,0,6.65-.04,2.15-1.56,3.7-3.5,3.67-1.88-.03-3.3-1.54-3.4-3.6-.02-.5,0-1-.02-1.5-.06-1.19-.71-1.78-1.89-1.89-4.64-.43-5.1-.94-5.1-5.58,0-.44,0-.89,0-1.33h0Z"/><path class="cls-1" d="m7.19,98.24c-1.11,0-2.22.04-3.32,0-2.06-.08-3.48-1.41-3.55-3.43-.07-2.38-.08-4.76,0-7.14.07-1.93,1.64-3.36,3.45-3.36,1.82,0,3.3,1.44,3.45,3.37.04.5.02,1,.02,1.49,0,1.44.73,2.13,2.16,2.13.55,0,1.11-.03,1.66.03,1.82.21,3.19,1.72,3.17,3.47-.02,1.75-1.39,3.24-3.23,3.42-.66.07-1.33.02-1.99.03-.61,0-1.22,0-1.83,0Z"/><path class="cls-1" d="m126.32,84.24c0-1.11-.04-2.22,0-3.32.08-2.14,1.44-3.53,3.57-3.59,2.27-.06,4.54-.06,6.81,0,2.04.06,3.54,1.6,3.51,3.47-.02,1.88-1.53,3.31-3.59,3.41-.44.02-.89,0-1.33.01-1.35.02-2.05.69-2.07,2.05,0,.55.03,1.11-.03,1.66-.18,1.85-1.62,3.24-3.37,3.28-1.81.04-3.37-1.4-3.49-3.32-.08-1.21-.01-2.44-.01-3.66h0Z"/><path class="cls-1" d="m70.32,189.23c0-1.17-.05-2.33.01-3.49.11-1.96,1.45-3.34,3.41-3.41,2.38-.08,4.77-.08,7.16,0,1.93.07,3.36,1.66,3.34,3.48-.03,1.82-1.48,3.27-3.43,3.41-.55.04-1.11,0-1.66.03-1.19.06-1.83.69-1.89,1.88-.03.55.01,1.11-.03,1.66-.13,1.95-1.58,3.4-3.4,3.43-1.88.03-3.4-1.47-3.5-3.5-.05-1.16,0-2.33,0-3.5Z"/><path class="cls-1" d="m175.32,77.22c-1.11,0-2.21.03-3.32,0-2.15-.07-3.7-1.56-3.67-3.48.03-1.87,1.53-3.35,3.58-3.4,2.27-.05,4.54-.06,6.8,0,2.03.06,3.53,1.61,3.5,3.47-.03,1.87-1.53,3.32-3.58,3.4-1.1.04-2.21,0-3.32,0Z"/><path class="cls-1" d="m63.23,189.35c0,1.16.06,2.33-.01,3.49-.12,1.94-1.62,3.38-3.44,3.38-1.82,0-3.37-1.44-3.44-3.38-.08-2.38-.08-4.77,0-7.15.07-1.94,1.62-3.38,3.43-3.38,1.82,0,3.33,1.44,3.45,3.38.07,1.22.01,2.44.01,3.66Z"/><path class="cls-1" d="m91.24,175.31c1.11,0,2.22-.03,3.33,0,2.15.07,3.7,1.57,3.67,3.5-.03,1.88-1.53,3.35-3.59,3.4-2.22.05-4.44.05-6.65,0-2.15-.04-3.7-1.56-3.66-3.5.03-1.88,1.53-3.33,3.59-3.41,1.11-.04,2.22,0,3.33,0Z"/><path class="cls-1" d="m63.24,49.27c0,1.17.05,2.33-.01,3.5-.1,1.96-1.55,3.41-3.37,3.45-1.88.05-3.46-1.44-3.52-3.47-.07-2.33-.07-4.66,0-6.99.06-1.96,1.54-3.41,3.37-3.45,1.88-.05,3.42,1.44,3.53,3.47.06,1.16.01,2.33.01,3.5Z"/><path class="cls-1" d="m147.23,49.21c0,1.16.04,2.33,0,3.49-.09,2.04-1.59,3.54-3.46,3.52-1.87-.01-3.37-1.52-3.42-3.56-.06-2.27-.06-4.54,0-6.8.06-2.04,1.59-3.54,3.46-3.52,1.87.01,3.34,1.52,3.42,3.56.05,1.1,0,2.21,0,3.32Z"/><path class="cls-1" d="m49.2,63.23c-1.17,0-2.33.06-3.5-.01-1.94-.12-3.38-1.62-3.39-3.44,0-1.82,1.44-3.38,3.38-3.44,2.38-.08,4.77-.08,7.16,0,1.94.07,3.38,1.62,3.39,3.44,0,1.82-1.44,3.34-3.38,3.45-1.22.07-2.44.01-3.66.01Z"/><path class="cls-1" d="m14.24,108.74c.01,1.87-1.62,3.5-3.48,3.49-1.87-.01-3.48-1.66-3.45-3.52.04-1.81,1.59-3.36,3.4-3.4,1.86-.04,3.52,1.57,3.53,3.44Z"/><path class="cls-1" d="m52.84,112.23c-1.8.04-3.43-1.49-3.52-3.31-.09-1.87,1.51-3.56,3.39-3.6,1.87-.04,3.53,1.6,3.52,3.48-.01,1.81-1.58,3.4-3.4,3.44Z"/><path class="cls-1" d="m7.24,115.81c-.03,1.87-1.69,3.47-3.55,3.42-1.81-.05-3.36-1.62-3.38-3.42-.02-1.87,1.6-3.51,3.47-3.51,1.87,0,3.49,1.64,3.46,3.51Z"/><path class="cls-1" d="m157.76,56.32c1.85,0,3.5,1.66,3.46,3.51-.04,1.79-1.64,3.37-3.43,3.38-1.85.01-3.5-1.66-3.46-3.51.04-1.8,1.64-3.37,3.43-3.38Z"/><path class="cls-1" d="m14.24,122.8c-.02,1.89-1.7,3.5-3.58,3.43-1.83-.07-3.37-1.68-3.35-3.49.02-1.89,1.71-3.5,3.58-3.43,1.83.07,3.37,1.68,3.35,3.49Z"/><path class="cls-1" d="m63.23,66.84c-.05,1.81-1.64,3.38-3.45,3.38-1.88,0-3.51-1.67-3.46-3.54.05-1.88,1.75-3.48,3.62-3.38,1.82.1,3.34,1.73,3.3,3.53Z"/><path class="cls-1" d="m7.24,129.78c0,1.87-1.66,3.49-3.52,3.45-1.87-.03-3.47-1.7-3.41-3.56.06-1.81,1.63-3.35,3.43-3.37,1.87-.02,3.5,1.61,3.5,3.48Z"/><path class="cls-1" d="m31.73,63.23c-1.89-.03-3.49-1.72-3.41-3.6.08-1.83,1.7-3.36,3.51-3.33,1.89.03,3.49,1.72,3.41,3.6-.08,1.83-1.7,3.36-3.51,3.33Z"/><path class="cls-1" d="m10.71,140.23c-1.89-.04-3.49-1.74-3.39-3.61.09-1.83,1.71-3.35,3.53-3.31,1.89.04,3.49,1.74,3.39,3.61-.09,1.83-1.71,3.35-3.53,3.31Z"/><path class="cls-1" d="m42.24,136.75c.01,1.81-1.54,3.42-3.36,3.48-1.87.06-3.55-1.56-3.56-3.44-.01-1.88,1.65-3.52,3.52-3.48,1.82.04,3.39,1.63,3.4,3.44Z"/><path class="cls-1" d="m7.24,143.79c-.01,1.82-1.58,3.4-3.4,3.44-1.88.04-3.54-1.6-3.53-3.48.01-1.89,1.69-3.5,3.57-3.44,1.82.06,3.37,1.67,3.36,3.48Z"/><path class="cls-1" d="m21.24,143.76c0,1.88-1.67,3.51-3.54,3.47-1.82-.05-3.38-1.64-3.39-3.46,0-1.88,1.67-3.52,3.54-3.47,1.82.05,3.38,1.64,3.39,3.46Z"/><path class="cls-1" d="m35.24,143.83c-.04,1.89-1.74,3.48-3.61,3.39-1.82-.09-3.35-1.71-3.31-3.52.04-1.88,1.74-3.48,3.61-3.39,1.83.09,3.35,1.71,3.31,3.52Z"/><path class="cls-1" d="m73.8,147.31c1.87.02,3.5,1.7,3.43,3.56-.06,1.81-1.67,3.36-3.48,3.35-1.87-.01-3.5-1.7-3.43-3.56.07-1.82,1.67-3.36,3.48-3.35Z"/><path class="cls-1" d="m49.24,101.84c-.05,1.89-1.75,3.48-3.62,3.38-1.83-.1-3.35-1.72-3.3-3.53.05-1.89,1.75-3.48,3.61-3.38,1.83.1,3.35,1.72,3.3,3.53Z"/><path class="cls-1" d="m77.23,45.71c.04,1.87-1.61,3.53-3.48,3.51-1.81-.02-3.39-1.59-3.43-3.4-.04-1.87,1.61-3.53,3.48-3.51,1.81.02,3.4,1.59,3.43,3.4Z"/><path class="cls-1" d="m154.22,66.78c0,1.85-1.7,3.49-3.54,3.43-1.8-.06-3.36-1.66-3.35-3.45,0-1.86,1.69-3.49,3.54-3.43,1.8.06,3.36,1.67,3.35,3.45Z"/><path class="cls-1" d="m66.77,42.23c-1.88,0-3.5-1.69-3.45-3.55.06-1.82,1.66-3.37,3.47-3.37,1.88,0,3.5,1.68,3.45,3.55-.06,1.81-1.66,3.37-3.47,3.37Z"/><path class="cls-1" d="m119.23,157.76c0,1.86-1.66,3.51-3.53,3.46-1.81-.04-3.37-1.64-3.38-3.44,0-1.86,1.67-3.51,3.53-3.46,1.81.04,3.37,1.64,3.38,3.44Z"/><path class="cls-1" d="m168.22,66.8c-.02,1.86-1.72,3.48-3.56,3.41-1.8-.07-3.35-1.69-3.33-3.47.02-1.86,1.72-3.48,3.56-3.41,1.8.07,3.35,1.69,3.33,3.47Z"/><path class="cls-1" d="m140.22,17.84c-.05,1.8-1.65,3.37-3.44,3.37-1.86,0-3.5-1.67-3.45-3.52.05-1.87,1.76-3.47,3.6-3.36,1.8.1,3.33,1.73,3.28,3.52Z"/><path class="cls-1" d="m59.77,175.23c-1.81,0-3.4-1.57-3.45-3.39-.04-1.87,1.59-3.54,3.47-3.53,1.88,0,3.5,1.68,3.45,3.55-.06,1.81-1.66,3.37-3.47,3.37Z"/><path class="cls-1" d="m38.85,98.23c-1.88.04-3.54-1.59-3.53-3.47,0-1.81,1.57-3.41,3.39-3.45,1.87-.05,3.54,1.59,3.54,3.47,0,1.81-1.57,3.41-3.39,3.45Z"/><path class="cls-1" d="m182.22,87.77c0,1.86-1.68,3.5-3.53,3.44-1.8-.05-3.36-1.65-3.36-3.44,0-1.85,1.68-3.49,3.53-3.44,1.8.05,3.36,1.65,3.36,3.44Z"/><path class="cls-1" d="m147.22,87.76c0,1.79-1.56,3.4-3.36,3.45-1.85.06-3.53-1.58-3.54-3.43,0-1.86,1.67-3.5,3.52-3.45,1.8.05,3.37,1.64,3.37,3.44Z"/><path class="cls-1" d="m73.75,91.22c-1.81-.02-3.39-1.6-3.43-3.4-.03-1.87,1.62-3.53,3.49-3.51,1.87.02,3.49,1.71,3.42,3.57-.07,1.81-1.68,3.36-3.48,3.34Z"/><path class="cls-1" d="m203.23,185.82c-.03,1.87-1.73,3.48-3.58,3.39-1.81-.08-3.35-1.7-3.32-3.5.03-1.87,1.73-3.48,3.58-3.4,1.81.08,3.35,1.71,3.32,3.5Z"/><path class="cls-1" d="m49.24,87.72c.03,1.87-1.61,3.53-3.49,3.51-1.81-.02-3.4-1.59-3.43-3.41-.03-1.87,1.62-3.53,3.49-3.51,1.81.02,3.4,1.59,3.43,3.41Z"/><path class="cls-1" d="m112.23,73.76c0,1.87-1.67,3.51-3.53,3.46-1.81-.05-3.37-1.64-3.38-3.44,0-1.86,1.67-3.51,3.53-3.46,1.8.04,3.38,1.65,3.38,3.44Z"/><path class="cls-1" d="m73.81.31c1.88.02,3.49,1.72,3.42,3.58-.07,1.82-1.69,3.36-3.49,3.34-1.88-.02-3.49-1.72-3.42-3.58.07-1.82,1.69-3.36,3.49-3.34Z"/><path class="cls-1" d="m66.71,196.31c1.81-.04,3.43,1.48,3.52,3.31.09,1.86-1.5,3.56-3.39,3.61-1.87.04-3.53-1.6-3.52-3.47.01-1.81,1.58-3.4,3.39-3.44Z"/><path class="cls-1" d="m25.72,189.35c2.08-.12,4.2-.12,6.28-.4,2.74-.38,4.75-2.17,4.91-4.87.25-4.19.25-8.42,0-12.61-.15-2.64-2.14-4.66-4.74-4.81-4.25-.25-8.53-.25-12.77,0-2.6.15-4.59,2.18-4.75,4.81-.24,4.19-.25,8.42,0,12.61.16,2.7,2.18,4.49,4.91,4.88,2.02.28,4.09.28,6.16.4Z"/><path class="cls-1" d="m161.23,157.76c0,1.86-1.67,3.5-3.52,3.46-1.8-.04-3.37-1.64-3.38-3.44,0-1.86,1.67-3.5,3.52-3.46,1.8.05,3.37,1.64,3.38,3.44Z"/><path class="cls-1" d="m25.82,14.18c2.09.12,4.15.12,6.18.4,2.74.39,4.75,2.18,4.91,4.88.25,4.19.25,8.42,0,12.61-.16,2.7-2.17,4.68-4.91,4.84-4.14.25-8.31.25-12.45,0-2.74-.17-4.74-2.14-4.91-4.85-.26-4.19-.26-8.42,0-12.61.17-2.71,2.17-4.49,4.91-4.88,2.08-.29,4.2-.28,6.27-.4Z"/><path class="cls-1" d="m25.72,189.35c-2.08-.13-4.14-.12-6.16-.4-2.73-.38-4.75-2.18-4.91-4.88-.25-4.19-.25-8.42,0-12.61.15-2.64,2.15-4.66,4.75-4.81,4.25-.25,8.53-.24,12.77,0,2.6.15,4.59,2.17,4.74,4.81.24,4.19.25,8.42,0,12.61-.16,2.7-2.17,4.49-4.91,4.87-2.08.29-4.2.28-6.28.4Z"/><path class="cls-1" d="m189.35,25.78c-.14,2.17-.15,4.23-.43,6.26-.36,2.63-2.17,4.68-4.76,4.83-4.25.24-8.53.23-12.77,0-2.51-.14-4.57-2.17-4.7-4.67-.23-4.3-.22-8.64.01-12.94.13-2.4,2.2-4.44,4.61-4.57,4.3-.22,8.64-.23,12.94,0,2.41.13,4.3,2.17,4.64,4.58.31,2.19.33,4.42.47,6.52Z"/></g></svg>